# File produced by Open Asset Import Library (http://www.assimp.sf.net)
# (assimp v5.0.639693989)

mtllib idofqhslx7ug.mtl

# 10 vertex positions
v  5.3311553 0 -10.641538
v  2.411155 0 -1.2300339
v  0.89965177 0 -6.8710403
v  8.2511539 0 -1.2300339
v  9.7626572 0 -6.8710403
v  8.2511539 0.9600001 -1.2300339
v  9.7626572 0.9600001 -6.8710403
v  2.411155 0.9600001 -1.2300339
v  0.89965177 0.9600001 -6.8710403
v  5.3311553 0.9600001 -10.641538

# 0 UV coordinates

# 7 vertex normals
vn 0 -0.0254 0
vn 0.024534516 0 0.006574003
vn 0 0 0.0254
vn -0.024534516 0 0.006574003
vn -0.016459698 0 -0.019345241
vn 0.016459698 0 -0.019345241
vn 0 0.0254 0

# Mesh 'ID3' with 16 faces
g ID3
usemtl material
f  1//1 2//1 3//1
f  2//1 1//1 4//1
f  4//1 1//1 5//1
f  5//2 6//2 4//2
f  6//2 5//2 7//2
f  6//3 2//3 4//3
f  2//3 6//3 8//3
f  9//4 2//4 8//4
f  2//4 9//4 3//4
f  9//5 1//5 3//5
f  1//5 9//5 10//5
f  10//6 5//6 1//6
f  5//6 10//6 7//6
f  8//7 10//7 9//7
f  10//7 8//7 6//7
f  10//7 6//7 7//7

