# File produced by Open Asset Import Library (http://www.assimp.sf.net)
# (assimp v5.0.639693989)

mtllib wh8hof677p84.mtl

# 8 vertex positions
v  7.3499999 0 -10.439999
v  0 0 0
v  0 0 -10.439999
v  7.3499999 0 0
v  0 0.48000005 -10.439999
v  0 0.48000005 0
v  7.3499999 0.48000005 -10.439999
v  7.3499999 0.48000005 0

# 0 UV coordinates

# 6 vertex normals
vn 0 -0.0254 0
vn -0.0254 0 0
vn 0 0 -0.0254
vn 0.0254 0 0
vn -0 -0 0.0254
vn 0 0.0254 0

# Mesh 'ID3' with 12 faces
g ID3
usemtl material
f  1//1 2//1 3//1
f  2//1 1//1 4//1
f  5//2 2//2 6//2
f  2//2 5//2 3//2
f  5//3 1//3 3//3
f  1//3 5//3 7//3
f  1//4 8//4 4//4
f  8//4 1//4 7//4
f  8//5 2//5 4//5
f  2//5 8//5 6//5
f  8//6 5//6 6//6
f  5//6 8//6 7//6

